<svg width="149" height="59" viewBox="0 0 149 59" fill="none" xmlns="http://www.w3.org/2000/svg">
<path d="M52.0283 33.087H47.6078L46.8894 35.1867H44.541L48.5195 24.0802H51.1165L55.095 35.1867H52.7466L52.0283 33.087ZM51.4204 31.3188L49.818 26.6773L48.2156 31.3188H51.4204Z" fill="#FBFBFB"/>
<path d="M64.2678 26.401V35.2144H62.0299V34.1093C61.7537 34.4961 61.3669 34.8 60.8972 35.021C60.4551 35.242 59.9578 35.3525 59.4053 35.3525C58.7146 35.3525 58.1067 35.2144 57.5818 34.9105C57.0569 34.6066 56.6424 34.1922 56.3385 33.612C56.0346 33.0318 55.8965 32.3687 55.8965 31.5675V26.401H58.1067V31.2359C58.1067 31.9266 58.2725 32.4792 58.6317 32.866C58.9908 33.2252 59.4605 33.4186 60.0683 33.4186C60.6762 33.4186 61.1735 33.2252 61.505 32.866C61.8642 32.4792 62.0299 31.9543 62.0299 31.2359V26.401H64.2678Z" fill="#FBFBFB"/>
<path d="M68.4114 28.2245V32.4792C68.4114 32.7831 68.4666 33.0042 68.6048 33.1423C68.7429 33.2804 68.9916 33.3357 69.3231 33.3357H70.3454V35.2144H68.9363C67.0576 35.2144 66.1182 34.3027 66.1182 32.4792V28.2245H65.0684V26.401H66.1182V24.2184H68.3561V26.401H70.3177V28.2245H68.4114Z" fill="#FBFBFB"/>
<path d="M75.2639 35.3526C74.4074 35.3526 73.6614 35.1592 72.9707 34.8C72.28 34.4132 71.7551 33.8883 71.3683 33.1976C70.9815 32.5069 70.7881 31.7057 70.7881 30.8216C70.7881 29.9098 70.9815 29.1362 71.3683 28.4455C71.7827 27.7548 72.3076 27.2299 72.9983 26.8707C73.6891 26.4839 74.4626 26.2905 75.2915 26.2905C76.148 26.2905 76.8939 26.4839 77.5846 26.8707C78.2753 27.2299 78.8003 27.7825 79.2147 28.4455C79.6291 29.1362 79.8225 29.9375 79.8225 30.8216C79.8225 31.7333 79.6291 32.5069 79.2147 33.1976C78.8003 33.8883 78.2753 34.4132 77.557 34.8C76.8939 35.1592 76.1203 35.3526 75.2639 35.3526ZM75.2639 33.4186C75.6783 33.4186 76.0374 33.3357 76.3966 33.1423C76.7558 32.9489 77.0321 32.645 77.2531 32.2582C77.4741 31.8714 77.557 31.4017 77.557 30.8216C77.557 29.9927 77.336 29.3573 76.8939 28.8876C76.4519 28.4455 75.9269 28.1969 75.2915 28.1969C74.656 28.1969 74.1311 28.4179 73.6891 28.8876C73.2746 29.3296 73.0536 29.9651 73.0536 30.8216C73.0536 31.678 73.247 32.3135 73.6614 32.7555C74.1035 33.1976 74.6284 33.4186 75.2639 33.4186Z" fill="#FBFBFB"/>
<path d="M91.7855 26.2629C92.863 26.2629 93.7471 26.5944 94.3826 27.2575C95.0456 27.9206 95.3772 28.8323 95.3772 30.0203V35.1868H93.1669V30.3242C93.1669 29.6335 93.0011 29.1086 92.642 28.7494C92.2828 28.3903 91.8131 28.1969 91.2053 28.1969C90.5975 28.1969 90.1278 28.3903 89.7686 28.7494C89.4095 29.1086 89.2437 29.6335 89.2437 30.3242V35.1868H87.0058V30.3242C87.0058 29.6335 86.84 29.1086 86.4809 28.7494C86.1217 28.3903 85.652 28.1969 85.0442 28.1969C84.4364 28.1969 83.9391 28.3903 83.5799 28.7494C83.2208 29.1086 83.055 29.6335 83.055 30.3242V35.1868H80.8447V26.401H83.055V27.4785C83.3313 27.1194 83.7181 26.8154 84.1601 26.5944C84.6022 26.3734 85.0995 26.2905 85.652 26.2905C86.3427 26.2905 86.9506 26.4286 87.5031 26.7326C88.0557 27.0088 88.4701 27.4233 88.7464 27.9758C89.0227 27.4785 89.4371 27.0641 89.9897 26.7602C90.5422 26.4286 91.1501 26.2629 91.7855 26.2629Z" fill="#FBFBFB"/>
<path d="M96.2891 30.7663C96.2891 29.8822 96.4548 29.081 96.814 28.3903C97.1732 27.6995 97.6428 27.1746 98.2507 26.8154C98.8585 26.4563 99.5492 26.2629 100.295 26.2629C100.958 26.2629 101.511 26.401 102.008 26.6497C102.505 26.926 102.892 27.2575 103.196 27.6443V26.401H105.434V35.2144H103.196V33.9159C102.92 34.3303 102.505 34.6619 102.008 34.9381C101.511 35.2144 100.931 35.3249 100.268 35.3249C99.5216 35.3249 98.8585 35.1315 98.223 34.7447C97.6152 34.3579 97.1455 33.833 96.7864 33.1423C96.4548 32.4792 96.2891 31.678 96.2891 30.7663ZM103.196 30.7939C103.196 30.2413 103.086 29.7993 102.892 29.4125C102.671 29.0257 102.395 28.7218 102.036 28.5284C101.677 28.3074 101.29 28.2245 100.875 28.2245C100.461 28.2245 100.074 28.335 99.7426 28.5284C99.3834 28.7218 99.1071 29.0257 98.8861 29.4125C98.6651 29.7993 98.5822 30.2413 98.5822 30.7663C98.5822 31.2912 98.6927 31.7609 98.8861 32.1753C99.1071 32.5621 99.3834 32.866 99.7426 33.0871C100.102 33.3081 100.489 33.4186 100.875 33.4186C101.29 33.4186 101.677 33.3081 102.036 33.1147C102.395 32.8937 102.671 32.6174 102.892 32.2306C103.113 31.8162 103.196 31.3465 103.196 30.7939Z" fill="#FBFBFB"/>
<path d="M109.578 28.2245V32.4792C109.578 32.7831 109.634 33.0042 109.772 33.1423C109.91 33.2804 110.159 33.3357 110.49 33.3357H111.512V35.2144H110.103C108.225 35.2144 107.285 34.3027 107.285 32.4792V28.2245H106.235V26.401H107.285V24.2184H109.523V26.401H111.485V28.2245H109.578Z" fill="#FBFBFB"/>
<path d="M113.64 25.3511C113.253 25.3511 112.922 25.2406 112.646 24.9919C112.397 24.7433 112.259 24.4117 112.259 24.0526C112.259 23.6934 112.397 23.3618 112.646 23.1408C112.922 22.8922 113.226 22.754 113.64 22.754C114.055 22.754 114.359 22.8922 114.607 23.1408C114.883 23.3895 114.994 23.6934 114.994 24.0526C114.994 24.4117 114.856 24.7433 114.607 24.9919C114.359 25.2406 114.027 25.3511 113.64 25.3511ZM114.745 26.401V35.2144H112.535V26.401H114.745Z" fill="#FBFBFB"/>
<path d="M120.215 35.3526C119.359 35.3526 118.613 35.1592 117.922 34.8C117.231 34.4132 116.706 33.8883 116.319 33.1976C115.933 32.5069 115.739 31.7057 115.739 30.8216C115.739 29.9098 115.933 29.1362 116.319 28.4455C116.734 27.7548 117.259 27.2299 117.95 26.8707C118.64 26.4839 119.414 26.2905 120.243 26.2905C121.099 26.2905 121.845 26.4839 122.536 26.8707C123.227 27.2299 123.751 27.7825 124.166 28.4455C124.58 29.1362 124.774 29.9375 124.774 30.8216C124.774 31.7333 124.58 32.5069 124.166 33.1976C123.751 33.8883 123.227 34.4132 122.508 34.8C121.845 35.1592 121.072 35.3526 120.215 35.3526ZM120.215 33.4186C120.629 33.4186 120.989 33.3357 121.348 33.1423C121.707 32.9489 121.983 32.645 122.204 32.2582C122.425 31.8714 122.508 31.4017 122.508 30.8216C122.508 29.9927 122.287 29.3573 121.845 28.8876C121.403 28.4455 120.878 28.1969 120.243 28.1969C119.607 28.1969 119.082 28.4179 118.64 28.8876C118.226 29.3296 118.005 29.9651 118.005 30.8216C118.005 31.678 118.198 32.3135 118.613 32.7555C119.027 33.1976 119.58 33.4186 120.215 33.4186Z" fill="#FBFBFB"/>
<path d="M130.658 26.2629C131.708 26.2629 132.565 26.5944 133.2 27.2575C133.836 27.9206 134.167 28.8323 134.167 30.0203V35.1868H131.957V30.3242C131.957 29.6335 131.791 29.081 131.432 28.7218C131.073 28.335 130.603 28.1416 129.995 28.1416C129.388 28.1416 128.89 28.335 128.531 28.7218C128.172 29.081 128.006 29.6335 128.006 30.3242V35.1868H125.796V26.401H128.006V27.5061C128.31 27.1194 128.669 26.8154 129.139 26.622C129.609 26.3734 130.106 26.2629 130.658 26.2629Z" fill="#FBFBFB"/>
<path d="M26.3343 26.18V23.5001C23.0742 23.6106 20.4495 26.2905 20.4495 29.5783V29.9927H14.7305V29.5783C14.7305 23.1409 19.8969 17.8915 26.3067 17.781V14.8801L36.1147 20.6267L26.3343 26.18Z" fill="#FBFBFB"/>
<path d="M31.3344 29.5782V29.9926C31.3344 33.2804 28.7374 35.9603 25.4496 36.0708V33.4185L15.6416 38.9442L25.4496 44.6908V41.7899C31.8594 41.6793 37.0258 36.43 37.0258 29.9926V29.5782H31.3344Z" fill="#FBFBFB"/>
</svg>
