<svg width="775" height="74" viewBox="0 0 775 74" fill="none" xmlns="http://www.w3.org/2000/svg">
<path d="M53.352 45.0304C51.6837 45.0304 50.2443 44.7033 48.9685 44.049C47.6927 43.3948 46.7113 42.4461 46.0243 41.2357C45.3374 40.0254 44.9775 38.586 44.9775 36.9504C44.9775 35.3147 45.3374 33.8754 46.0243 32.665C46.7113 31.4219 47.6927 30.5059 48.9685 29.8517C50.2443 29.1974 51.7164 28.8376 53.352 28.8376C54.4643 28.8376 55.4783 28.9684 56.3289 29.1974C57.2121 29.4264 57.9972 29.7863 58.7169 30.2769V33.4828C58.0627 32.9594 57.3103 32.5668 56.4924 32.3379C55.6746 32.0762 54.726 31.9453 53.6464 31.9453C52.665 31.9453 51.7491 32.1416 50.964 32.5668C50.1789 32.9594 49.5573 33.5482 49.0994 34.3006C48.6414 35.053 48.4124 35.9363 48.4124 36.9504C48.4124 37.9645 48.6087 38.8804 49.0339 39.6328C49.4592 40.3852 50.048 40.974 50.8331 41.3993C51.6182 41.8246 52.5015 42.0208 53.4829 42.0208C54.3988 42.0208 55.1839 41.8573 55.8709 41.5302V38.5206H53.352V36.0344H59.1095V43.4929C57.6701 44.5397 55.7401 45.0304 53.352 45.0304Z" fill="#FBFBFB"/>
<path d="M59.9277 34.0716H63.1663V35.6091C63.5916 35.0857 64.1804 34.6931 64.9655 34.4314C65.7179 34.137 66.6011 34.0062 67.5825 34.0062V36.5578C66.5684 36.5578 65.6525 36.7213 64.8674 37.0157C64.0823 37.3102 63.5589 37.8008 63.2644 38.4224V44.7032H59.9277V34.0716Z" fill="#FBFBFB"/>
<path d="M73.9932 45.0304C71.965 45.0304 70.3621 44.5397 69.1845 43.5583C68.0068 42.577 67.418 41.1703 67.418 39.4038C67.418 37.6373 67.9414 36.2634 68.9555 35.2493C70.0023 34.2352 71.5071 33.7118 73.4371 33.7118C74.7129 33.7118 75.7924 33.9408 76.6757 34.4315C77.5589 34.8895 78.2459 35.5764 78.7039 36.3942C79.1619 37.2121 79.3909 38.1607 79.3909 39.2075V40.5488H70.6238C70.8528 41.9227 72.1286 42.577 74.4512 42.577C75.1382 42.577 75.8252 42.5115 76.5448 42.4134C77.2645 42.2825 77.8861 42.119 78.4422 41.9227V44.278C77.9188 44.507 77.2645 44.6706 76.4467 44.8014C75.6289 44.965 74.8111 45.0304 73.9932 45.0304ZM76.2504 38.4224C76.2177 37.7028 75.956 37.1793 75.4653 36.7868C74.9746 36.3942 74.3204 36.198 73.4371 36.198C72.5866 36.198 71.9323 36.3942 71.4416 36.7868C70.9509 37.1793 70.6892 37.7355 70.6565 38.4224H76.2504Z" fill="#FBFBFB"/>
<path d="M86.2608 45.0304C84.2326 45.0304 82.6297 44.5397 81.452 43.5583C80.2744 42.577 79.6855 41.1703 79.6855 39.4038C79.6855 37.6373 80.209 36.2634 81.223 35.2493C82.2699 34.2352 83.7746 33.7118 85.7047 33.7118C86.9805 33.7118 88.06 33.9408 88.9433 34.4315C89.8265 34.8895 90.5135 35.5764 90.9715 36.3942C91.4294 37.2121 91.6584 38.1607 91.6584 39.2075V40.5488H82.8914C83.1204 41.9227 84.3962 42.577 86.7188 42.577C87.4058 42.577 88.0927 42.5115 88.8124 42.4134C89.5321 42.2825 90.1536 42.119 90.7098 41.9227V44.278C90.1863 44.507 89.5321 44.6706 88.7143 44.8014C87.8965 44.965 87.0786 45.0304 86.2608 45.0304ZM88.518 38.4224C88.4853 37.7028 88.2236 37.1793 87.7329 36.7868C87.2422 36.3942 86.5879 36.198 85.7047 36.198C84.8542 36.198 84.1999 36.3942 83.7092 36.7868C83.2185 37.1793 82.9568 37.7355 82.9241 38.4224H88.518Z" fill="#FBFBFB"/>
<path d="M92.4434 34.0716H95.6819V35.3801C96.1726 34.824 96.7614 34.4314 97.4157 34.1697C98.1027 33.8753 98.7896 33.7444 99.542 33.7444C100.981 33.7444 102.061 34.137 102.781 34.9221C103.5 35.7072 103.86 36.7213 103.86 38.0625V44.7032H100.523V38.4224C100.523 37.0484 99.9019 36.3615 98.6261 36.3615C98.07 36.3615 97.5466 36.4923 97.0559 36.7867C96.5652 37.0484 96.1399 37.441 95.8128 37.9971V44.7032H92.4761V34.0716H92.4434Z" fill="#FBFBFB"/>
<path d="M106.805 32.4359C106.281 32.4359 105.856 32.2724 105.496 31.9125C105.136 31.5854 104.973 31.1274 104.973 30.6367C104.973 30.146 105.136 29.7208 105.496 29.3609C105.856 29.0011 106.281 28.8375 106.805 28.8375C107.328 28.8375 107.753 29.0011 108.113 29.3609C108.473 29.6881 108.636 30.1133 108.636 30.6367C108.636 31.1601 108.473 31.5854 108.113 31.9125C107.753 32.2724 107.328 32.4359 106.805 32.4359ZM105.104 34.0716H108.473V44.7032H105.104V34.0716Z" fill="#FBFBFB"/>
<path d="M114.197 45.0304C113.412 45.0304 112.529 44.9323 111.613 44.7687C110.697 44.6052 110.01 44.3762 109.487 44.049V41.432C110.076 41.7919 110.795 42.0863 111.613 42.2825C112.431 42.5115 113.216 42.6097 113.903 42.6097C114.525 42.6097 114.95 42.5442 115.244 42.4461C115.539 42.348 115.67 42.1517 115.67 41.8573C115.67 41.6283 115.604 41.4647 115.441 41.3339C115.277 41.1703 115.015 41.0722 114.688 40.9413C114.361 40.8105 113.805 40.6469 113.053 40.4179C112.137 40.1562 111.45 39.8945 110.926 39.6328C110.435 39.3384 110.043 39.0113 109.781 38.586C109.52 38.1607 109.389 37.6373 109.389 36.9831C109.389 35.8708 109.814 35.053 110.697 34.4969C111.58 33.9408 112.791 33.6464 114.296 33.6464C115.048 33.6464 115.8 33.7118 116.585 33.8754C117.371 34.0389 117.992 34.2352 118.417 34.4642V37.0158C117.992 36.7214 117.436 36.4924 116.716 36.3288C116.029 36.1652 115.375 36.0671 114.721 36.0671C114.099 36.0671 113.641 36.1325 113.314 36.2307C112.987 36.3615 112.824 36.5578 112.824 36.8849C112.824 37.1793 112.987 37.3756 113.281 37.5392C113.609 37.7028 114.197 37.8663 115.081 38.0953L115.539 38.1934C116.455 38.4551 117.207 38.7168 117.698 39.044C118.221 39.3384 118.581 39.6982 118.777 40.1235C119.006 40.5488 119.104 41.0722 119.104 41.6937C119.104 42.6751 118.679 43.4602 117.829 44.049C117.011 44.7687 115.8 45.0304 114.197 45.0304Z" fill="#FBFBFB"/>
<path d="M119.89 28.3141H123.226V35.282C123.717 34.7586 124.306 34.366 124.927 34.137C125.549 33.8753 126.236 33.7445 126.956 33.7445C128.395 33.7445 129.474 34.137 130.194 34.9221C130.914 35.7072 131.274 36.7213 131.274 38.0626V44.7033H127.937V38.4224C127.937 37.0485 127.315 36.3615 126.04 36.3615C125.484 36.3615 124.96 36.4923 124.469 36.7868C123.979 37.0485 123.553 37.441 123.226 37.9971V44.7033H119.89V28.3141Z" fill="#FBFBFB"/>
<path fill-rule="evenodd" clip-rule="evenodd" d="M33.5279 31.4546C33.5279 34.2679 31.238 36.5578 28.4247 36.5578C25.6114 36.5578 23.3215 34.2679 23.3215 31.4546C23.3215 28.6413 25.6114 26.3514 28.4247 26.3514C31.238 26.3514 33.5279 28.6413 33.5279 31.4546ZM16.5499 36.1979C22.1111 35.8381 26.9526 39.9926 27.4106 45.5538C27.4433 46.1426 27.4433 46.6987 27.4106 47.2549C21.8494 47.6147 17.0079 43.4602 16.5499 37.899C16.5172 37.3102 16.5172 36.7541 16.5499 36.1979ZM31.009 47.0586C36.5702 46.6006 40.7247 41.7591 40.3648 36.1979C39.8087 36.1652 39.2526 36.1325 38.6638 36.1979C33.1026 36.6559 28.9481 41.4974 29.3079 47.0586C29.864 47.0913 30.4202 47.0913 31.009 47.0586Z" fill="#FBFBFB"/>
<path d="M209.028 40.087H204.608L203.889 42.1867H201.541L205.519 31.0802H208.117L212.095 42.1867H209.747L209.028 40.087ZM208.42 38.3188L206.818 33.6773L205.216 38.3188H208.42Z" fill="#FBFBFB"/>
<path d="M221.268 33.401V42.2144H219.03V41.1093C218.754 41.4961 218.367 41.8 217.897 42.021C217.455 42.242 216.958 42.3525 216.405 42.3525C215.715 42.3525 215.107 42.2144 214.582 41.9105C214.057 41.6066 213.642 41.1922 213.339 40.612C213.035 40.0318 212.896 39.3687 212.896 38.5675V33.401H215.107V38.2359C215.107 38.9266 215.273 39.4792 215.632 39.866C215.991 40.2252 216.461 40.4186 217.068 40.4186C217.676 40.4186 218.173 40.2252 218.505 39.866C218.864 39.4792 219.03 38.9543 219.03 38.2359V33.401H221.268Z" fill="#FBFBFB"/>
<path d="M225.411 35.2245V39.4792C225.411 39.7831 225.467 40.0042 225.605 40.1423C225.743 40.2804 225.992 40.3357 226.323 40.3357H227.345V42.2144H225.936C224.058 42.2144 223.118 41.3027 223.118 39.4792V35.2245H222.068V33.401H223.118V31.2184H225.356V33.401H227.318V35.2245H225.411Z" fill="#FBFBFB"/>
<path d="M232.264 42.3526C231.407 42.3526 230.661 42.1592 229.971 41.8C229.28 41.4132 228.755 40.8883 228.368 40.1976C227.981 39.5069 227.788 38.7057 227.788 37.8216C227.788 36.9098 227.981 36.1362 228.368 35.4455C228.783 34.7548 229.308 34.2299 229.998 33.8707C230.689 33.4839 231.463 33.2905 232.291 33.2905C233.148 33.2905 233.894 33.4839 234.585 33.8707C235.275 34.2299 235.8 34.7825 236.215 35.4455C236.629 36.1362 236.823 36.9375 236.823 37.8216C236.823 38.7333 236.629 39.5069 236.215 40.1976C235.8 40.8883 235.275 41.4132 234.557 41.8C233.894 42.1592 233.12 42.3526 232.264 42.3526ZM232.264 40.4186C232.678 40.4186 233.037 40.3357 233.397 40.1423C233.756 39.9489 234.032 39.645 234.253 39.2582C234.474 38.8714 234.557 38.4017 234.557 37.8216C234.557 36.9927 234.336 36.3573 233.894 35.8876C233.452 35.4455 232.927 35.1969 232.291 35.1969C231.656 35.1969 231.131 35.4179 230.689 35.8876C230.275 36.3296 230.054 36.9651 230.054 37.8216C230.054 38.678 230.247 39.3135 230.661 39.7555C231.103 40.1976 231.628 40.4186 232.264 40.4186Z" fill="#FBFBFB"/>
<path d="M248.786 33.2629C249.863 33.2629 250.747 33.5944 251.383 34.2575C252.046 34.9206 252.377 35.8323 252.377 37.0203V42.1868H250.167V37.3242C250.167 36.6335 250.001 36.1086 249.642 35.7494C249.283 35.3903 248.813 35.1969 248.205 35.1969C247.597 35.1969 247.128 35.3903 246.769 35.7494C246.409 36.1086 246.244 36.6335 246.244 37.3242V42.1868H244.006V37.3242C244.006 36.6335 243.84 36.1086 243.481 35.7494C243.122 35.3903 242.652 35.1969 242.044 35.1969C241.436 35.1969 240.939 35.3903 240.58 35.7494C240.221 36.1086 240.055 36.6335 240.055 37.3242V42.1868H237.845V33.401H240.055V34.4785C240.331 34.1194 240.718 33.8154 241.16 33.5944C241.602 33.3734 242.099 33.2905 242.652 33.2905C243.343 33.2905 243.951 33.4286 244.503 33.7326C245.056 34.0088 245.47 34.4233 245.746 34.9758C246.023 34.4785 246.437 34.0641 246.99 33.7602C247.542 33.4286 248.15 33.2629 248.786 33.2629Z" fill="#FBFBFB"/>
<path d="M253.289 37.7663C253.289 36.8822 253.455 36.081 253.814 35.3903C254.173 34.6995 254.643 34.1746 255.251 33.8154C255.858 33.4563 256.549 33.2629 257.295 33.2629C257.958 33.2629 258.511 33.401 259.008 33.6497C259.505 33.926 259.892 34.2575 260.196 34.6443V33.401H262.434V42.2144H260.196V40.9159C259.92 41.3303 259.505 41.6619 259.008 41.9381C258.511 42.2144 257.931 42.3249 257.268 42.3249C256.522 42.3249 255.858 42.1315 255.223 41.7447C254.615 41.3579 254.146 40.833 253.786 40.1423C253.455 39.4792 253.289 38.678 253.289 37.7663ZM260.196 37.7939C260.196 37.2413 260.086 36.7993 259.892 36.4125C259.671 36.0257 259.395 35.7218 259.036 35.5284C258.677 35.3074 258.29 35.2245 257.875 35.2245C257.461 35.2245 257.074 35.335 256.743 35.5284C256.383 35.7218 256.107 36.0257 255.886 36.4125C255.665 36.7993 255.582 37.2413 255.582 37.7663C255.582 38.2912 255.693 38.7609 255.886 39.1753C256.107 39.5621 256.383 39.866 256.743 40.0871C257.102 40.3081 257.489 40.4186 257.875 40.4186C258.29 40.4186 258.677 40.3081 259.036 40.1147C259.395 39.8937 259.671 39.6174 259.892 39.2306C260.113 38.8162 260.196 38.3465 260.196 37.7939Z" fill="#FBFBFB"/>
<path d="M266.578 35.2245V39.4792C266.578 39.7831 266.634 40.0042 266.772 40.1423C266.91 40.2804 267.159 40.3357 267.49 40.3357H268.512V42.2144H267.103C265.225 42.2144 264.285 41.3027 264.285 39.4792V35.2245H263.235V33.401H264.285V31.2184H266.523V33.401H268.485V35.2245H266.578Z" fill="#FBFBFB"/>
<path d="M270.64 32.3511C270.253 32.3511 269.922 32.2406 269.646 31.9919C269.397 31.7433 269.259 31.4117 269.259 31.0526C269.259 30.6934 269.397 30.3618 269.646 30.1408C269.922 29.8922 270.226 29.754 270.64 29.754C271.055 29.754 271.359 29.8922 271.607 30.1408C271.883 30.3895 271.994 30.6934 271.994 31.0526C271.994 31.4117 271.856 31.7433 271.607 31.9919C271.359 32.2406 271.027 32.3511 270.64 32.3511ZM271.745 33.401V42.2144H269.535V33.401H271.745Z" fill="#FBFBFB"/>
<path d="M277.215 42.3526C276.359 42.3526 275.613 42.1592 274.922 41.8C274.231 41.4132 273.706 40.8883 273.319 40.1976C272.933 39.5069 272.739 38.7057 272.739 37.8216C272.739 36.9098 272.933 36.1362 273.319 35.4455C273.734 34.7548 274.259 34.2299 274.95 33.8707C275.64 33.4839 276.414 33.2905 277.243 33.2905C278.099 33.2905 278.845 33.4839 279.536 33.8707C280.227 34.2299 280.751 34.7825 281.166 35.4455C281.58 36.1362 281.774 36.9375 281.774 37.8216C281.774 38.7333 281.58 39.5069 281.166 40.1976C280.751 40.8883 280.227 41.4132 279.508 41.8C278.845 42.1592 278.072 42.3526 277.215 42.3526ZM277.215 40.4186C277.629 40.4186 277.989 40.3357 278.348 40.1423C278.707 39.9489 278.983 39.645 279.204 39.2582C279.425 38.8714 279.508 38.4017 279.508 37.8216C279.508 36.9927 279.287 36.3573 278.845 35.8876C278.403 35.4455 277.878 35.1969 277.243 35.1969C276.607 35.1969 276.082 35.4179 275.64 35.8876C275.226 36.3296 275.005 36.9651 275.005 37.8216C275.005 38.678 275.198 39.3135 275.613 39.7555C276.027 40.1976 276.58 40.4186 277.215 40.4186Z" fill="#FBFBFB"/>
<path d="M287.658 33.2629C288.708 33.2629 289.565 33.5944 290.2 34.2575C290.836 34.9206 291.167 35.8323 291.167 37.0203V42.1868H288.957V37.3242C288.957 36.6335 288.791 36.081 288.432 35.7218C288.073 35.335 287.603 35.1416 286.995 35.1416C286.388 35.1416 285.89 35.335 285.531 35.7218C285.172 36.081 285.006 36.6335 285.006 37.3242V42.1868H282.796V33.401H285.006V34.5061C285.31 34.1194 285.669 33.8154 286.139 33.622C286.609 33.3734 287.106 33.2629 287.658 33.2629Z" fill="#FBFBFB"/>
<path d="M183.334 33.18V30.5001C180.074 30.6106 177.45 33.2905 177.45 36.5783V36.9927H171.73V36.5783C171.73 30.1409 176.897 24.8915 183.307 24.781V21.8801L193.115 27.6267L183.334 33.18Z" fill="#FBFBFB"/>
<path d="M188.334 36.5782V36.9926C188.334 40.2804 185.737 42.9603 182.45 43.0708V40.4185L172.642 45.9442L182.45 51.6908V48.7899C188.859 48.6793 194.026 43.43 194.026 36.9926V36.5782H188.334Z" fill="#FBFBFB"/>
<path d="M356.235 45.549C356.4 47.4859 355.74 49.5052 354.257 50.9888C352.773 52.4724 350.754 53.173 348.817 53.0082C348.652 51.0713 349.311 49.0519 350.795 47.5683C352.278 46.0848 354.298 45.3842 356.235 45.549Z" fill="#FBFBFB"/>
<path d="M352.691 42.8291C350.754 44.9309 347.91 46.1672 344.861 46.0024C341.77 45.8787 339.091 44.3539 337.36 42.1286C339.297 40.0268 342.141 38.7905 345.19 38.9553C348.281 39.079 350.96 40.6038 352.691 42.8291Z" fill="#FBFBFB"/>
<path d="M336.206 36.153C336.618 31.2901 339.091 26.5921 343.377 23.5013C347.663 20.4105 352.896 19.5862 357.636 20.7401C357.224 25.603 354.751 30.3011 350.465 33.3919C346.179 36.4827 340.945 37.3069 336.206 36.153Z" fill="#FBFBFB"/>
<path d="M415.207 30.1362V33.1034H416.979V48.6399H420.152V33.1446H424.315V30.1774H420.152V27.1278C420.152 26.2624 420.235 25.5618 420.4 25.0261C420.564 24.4903 420.77 24.1194 421.018 23.9134C421.306 23.6661 421.636 23.5425 422.048 23.5425C422.378 23.5425 422.707 23.6249 423.037 23.7485C423.408 23.8722 423.738 24.1194 423.985 24.5728L425.716 21.9765C425.551 21.7292 425.262 21.4819 424.933 21.2347C424.603 20.9874 424.232 20.7814 423.779 20.6577C423.326 20.4929 422.831 20.4105 422.254 20.4105C421.141 20.4105 420.194 20.6577 419.411 21.111C418.628 21.5644 418.051 22.2649 417.638 23.1716C417.226 24.0782 417.02 25.2733 417.02 26.7157V30.1362H415.207Z" fill="#FBFBFB"/>
<path d="M365.466 24.1194V48.6811H379.725V45.5079H368.845V24.1194H365.466Z" fill="#FBFBFB"/>
<path fill-rule="evenodd" clip-rule="evenodd" d="M388.173 49.052C390.11 49.052 391.799 48.6811 393.242 47.8981C394.684 47.115 395.879 45.9611 396.827 44.3951L394.272 42.7879C393.612 43.9006 392.788 44.7248 391.84 45.3018C390.893 45.8375 389.78 46.0848 388.544 46.0848C387.307 46.0848 386.236 45.8375 385.37 45.3018C384.505 44.766 383.845 44.0242 383.392 42.994C383.062 42.2522 382.856 41.3455 382.774 40.3565H397.115V39.9856C397.157 39.7795 397.157 39.5735 397.157 39.4086C397.157 37.4717 396.827 35.8233 396.126 34.4221C395.426 33.021 394.437 31.9495 393.159 31.2077C391.882 30.4247 390.357 30.0538 388.585 30.0538C386.813 30.0538 385.205 30.4659 383.845 31.2489C382.486 32.0319 381.455 33.1446 380.672 34.587C379.93 36.0293 379.56 37.6778 379.56 39.5735C379.56 41.428 379.93 43.1176 380.631 44.5188C381.373 45.9611 382.403 47.0738 383.681 47.8981C384.958 48.6398 386.483 49.052 388.173 49.052ZM383.475 35.8233C383.227 36.359 383.021 36.9772 382.898 37.6366H393.695C393.654 36.7711 393.406 35.9881 393.036 35.3288C392.623 34.5457 392.005 33.9276 391.263 33.4743C390.48 33.0209 389.615 32.8149 388.585 32.8149C387.39 32.8149 386.318 33.0622 385.453 33.5979C384.587 34.0924 383.928 34.8342 383.475 35.8233Z" fill="#FBFBFB"/>
<path fill-rule="evenodd" clip-rule="evenodd" d="M410.056 38.6668C409.562 38.3371 408.944 38.0487 408.161 37.8014C407.295 37.4717 406.183 37.3069 404.864 37.3069C402.638 37.3069 400.866 37.8426 399.589 38.9141C398.353 39.9856 397.734 41.3867 397.734 43.1588C397.734 44.3951 398.023 45.4666 398.6 46.332C399.177 47.1975 399.96 47.8568 400.908 48.3514C401.897 48.8047 402.927 49.0107 404.04 49.0107C405.029 49.0107 406.059 48.8459 407.048 48.475C408.078 48.1041 408.944 47.5272 409.603 46.7854C409.768 46.6205 409.933 46.4145 410.056 46.2084V48.6399H413.23V35.576C413.23 34.3809 412.941 33.3918 412.323 32.5676C411.746 31.7434 410.922 31.1253 409.809 30.7131C408.738 30.2598 407.501 30.0538 406.1 30.0538C404.411 30.0538 402.968 30.301 401.732 30.7956C400.537 31.2901 399.589 31.7846 398.929 32.3204L400.454 34.6694C400.743 34.4633 401.155 34.2161 401.649 33.9276C402.144 33.6391 402.762 33.3918 403.463 33.1858C404.204 32.9797 405.029 32.8561 405.935 32.8561C406.471 32.8561 407.007 32.8973 407.501 33.0209C407.996 33.1446 408.449 33.3094 408.82 33.5155C409.232 33.7627 409.521 34.0924 409.727 34.5045C409.933 34.9166 410.056 35.4112 410.056 36.0293V38.6668ZM401.443 41.3455C401.114 41.8401 400.949 42.3758 400.949 43.0352C400.949 43.7358 401.114 44.3127 401.443 44.8072C401.773 45.3018 402.268 45.6727 402.845 45.9611C403.463 46.2084 404.122 46.332 404.905 46.332C405.894 46.332 406.76 46.126 407.501 45.7551C408.284 45.343 408.903 44.8072 409.356 44.1067C409.85 43.3649 410.056 42.5407 410.056 41.5928V40.8922C409.562 40.6449 409.026 40.4389 408.532 40.3153C407.543 40.0268 406.512 39.8619 405.4 39.8619C404.369 39.8619 403.545 39.9856 402.886 40.2741C402.226 40.4801 401.732 40.851 401.443 41.3455Z" fill="#FBFBFB"/>
<path fill-rule="evenodd" clip-rule="evenodd" d="M438.08 47.8981C436.637 48.6811 434.948 49.052 433.011 49.052C431.321 49.052 429.796 48.6399 428.478 47.8569C427.2 47.0326 426.17 45.92 425.428 44.4776C424.727 43.0352 424.356 41.3868 424.356 39.5323C424.356 37.6366 424.727 35.9881 425.469 34.5458C426.252 33.1034 427.282 32.0319 428.642 31.2077C430.002 30.4247 431.61 30.0126 433.382 30.0126C435.195 30.0126 436.72 30.3835 437.956 31.1665C439.234 31.9083 440.223 32.9798 440.923 34.3809C441.624 35.7821 441.953 37.4305 441.953 39.3674C441.953 39.5323 441.953 39.7383 441.912 39.9444V40.3153H427.571C427.653 41.3043 427.859 42.211 428.189 42.9528C428.642 43.9418 429.302 44.7248 430.167 45.2606C431.033 45.7963 432.104 46.0436 433.34 46.0436C434.577 46.0436 435.689 45.7963 436.637 45.2606C437.585 44.7248 438.409 43.8594 439.069 42.7467L441.624 44.3539C440.717 45.9612 439.522 47.1151 438.08 47.8981ZM427.736 37.6366C427.859 36.9772 428.024 36.359 428.313 35.8233C428.807 34.8342 429.467 34.0924 430.291 33.5979C431.156 33.0622 432.187 32.8149 433.423 32.8149C434.453 32.8149 435.36 33.021 436.102 33.4743C436.885 33.9276 437.461 34.5458 437.874 35.3288C438.244 35.9881 438.451 36.7711 438.533 37.6366H427.736Z" fill="#FBFBFB"/>
<path d="M522.723 42.7631C529.59 38.9102 538.279 41.296 542.216 48.1152L536.291 51.5361C529.392 55.5192 520.569 53.1056 516.658 46.1658L522.723 42.7631Z" fill="#FBFBFB"/>
<path d="M520.212 40.0619C524.134 33.2672 532.823 30.9391 539.618 34.8621L536.067 41.0138C532.143 47.8086 523.455 50.1368 516.66 46.2135L520.212 40.0619Z" fill="#FBFBFB"/>
<path d="M516.353 39.4038C516.353 31.1629 523.033 24.4824 531.274 24.4824V31.4457C531.274 39.6864 524.593 46.367 516.353 46.367V39.4038Z" fill="#FBFBFB"/>
<path d="M512.831 39.6875C508.908 32.8927 511.236 24.2042 518.032 20.2811L521.583 26.4327C525.506 33.2276 523.178 41.9162 516.383 45.8391L512.831 39.6875Z" fill="#FBFBFB"/>
<path d="M516.352 38.4089C516.352 30.7176 510.117 24.4824 502.426 24.4824V32.4404C502.426 40.1319 508.661 46.367 516.352 46.367V38.4089Z" fill="#FBFBFB"/>
<path d="M513.354 40.0619C509.431 33.2672 500.742 30.9391 493.947 34.8621L497.499 41.0138C501.422 47.8086 510.11 50.1368 516.905 46.2135L513.354 40.0619Z" fill="#FBFBFB"/>
<path d="M510.842 42.7631C503.974 38.9102 495.286 41.296 491.349 48.1152L497.274 51.5361C504.172 55.5192 512.996 53.1056 516.907 46.1658L510.842 42.7631Z" fill="#FBFBFB"/>
<path d="M567.537 29.8375V45.2594H564.443V35.2284L560.312 45.2594H557.969L553.816 35.2284V45.2594H550.723V29.8375H554.236L559.141 41.3044L564.046 29.8375H567.537Z" fill="#FBFBFB"/>
<path d="M571.28 31.5608C570.735 31.5608 570.278 31.3914 569.91 31.0527C569.557 30.6992 569.38 30.2646 569.38 29.7491C569.38 29.2336 569.557 28.8064 569.91 28.4676C570.278 28.1141 570.735 27.9374 571.28 27.9374C571.825 27.9374 572.274 28.1141 572.628 28.4676C572.996 28.8064 573.18 29.2336 573.18 29.7491C573.18 30.2646 572.996 30.6992 572.628 31.0527C572.274 31.3914 571.825 31.5608 571.28 31.5608ZM572.804 33.0191V45.2594H569.711V33.0191H572.804Z" fill="#FBFBFB"/>
<path d="M581.76 32.8423C583.218 32.8423 584.396 33.3063 585.295 34.2342C586.193 35.1474 586.642 36.4289 586.642 38.0786V45.2594H583.549V38.4986C583.549 37.5263 583.306 36.7824 582.82 36.2669C582.334 35.7366 581.671 35.4715 580.832 35.4715C579.977 35.4715 579.3 35.7366 578.799 36.2669C578.313 36.7824 578.07 37.5263 578.07 38.4986V45.2594H574.977V33.019H578.07V34.5435C578.482 34.0133 579.005 33.6008 579.638 33.3063C580.287 32.9969 580.994 32.8423 581.76 32.8423Z" fill="#FBFBFB"/>
<path d="M587.904 39.095C587.904 37.8576 588.147 36.7603 588.633 35.8029C589.134 34.8454 589.812 34.109 590.666 33.5934C591.521 33.0779 592.471 32.8202 593.516 32.8202C594.312 32.8202 595.07 32.9969 595.792 33.3504C596.514 33.6892 597.088 34.1458 597.515 34.7203V28.9095H600.653V45.2594H597.515V43.4474C597.132 44.0515 596.595 44.5375 595.903 44.9057C595.21 45.274 594.407 45.4581 593.494 45.4581C592.463 45.4581 591.521 45.193 590.666 44.6626C589.812 44.1324 589.134 43.3887 588.633 42.4313C588.147 41.459 587.904 40.347 587.904 39.095ZM597.537 39.1391C597.537 38.3881 597.39 37.7472 597.095 37.2169C596.801 36.6719 596.403 36.2595 595.903 35.9796C595.402 35.685 594.864 35.5378 594.29 35.5378C593.715 35.5378 593.185 35.6777 592.699 35.9575C592.213 36.2374 591.815 36.6498 591.506 37.1948C591.211 37.7251 591.064 38.3585 591.064 39.095C591.064 39.8315 591.211 40.4793 591.506 41.0393C591.815 41.5844 592.213 42.004 592.699 42.2986C593.2 42.5932 593.73 42.7405 594.29 42.7405C594.864 42.7405 595.402 42.6005 595.903 42.3208C596.403 42.0262 596.801 41.6135 597.095 41.0834C597.39 40.5384 597.537 39.8902 597.537 39.1391Z" fill="#FBFBFB"/>
<path d="M608.402 35.5599H606.259V45.2594H603.121V35.5599H601.729V33.019H603.121V32.4004C603.121 30.898 603.548 29.7933 604.403 29.0863C605.257 28.3793 606.546 28.0478 608.269 28.092V30.6992C607.518 30.6844 606.995 30.8096 606.701 31.0748C606.406 31.3399 606.259 31.8186 606.259 32.5109V33.019H608.402V35.5599Z" fill="#FBFBFB"/>
<path d="M621.079 33.019V45.2594H617.964V43.7125C617.566 44.243 617.043 44.6626 616.395 44.9721C615.762 45.2667 615.069 45.414 614.318 45.414C613.361 45.414 612.514 45.2149 611.777 44.8175C611.041 44.4048 610.459 43.8084 610.032 43.0278C609.619 42.2323 609.413 41.2898 609.413 40.1997V33.019H612.506V39.7579C612.506 40.7298 612.749 41.4812 613.235 42.0113C613.722 42.5269 614.385 42.7846 615.224 42.7846C616.078 42.7846 616.749 42.5269 617.234 42.0113C617.72 41.4812 617.964 40.7298 617.964 39.7579V33.019H621.079Z" fill="#FBFBFB"/>
<path d="M626.34 28.9095V45.2594H623.247V28.9095H626.34Z" fill="#FBFBFB"/>
<path d="M635.295 32.8423C636.753 32.8423 637.931 33.3063 638.83 34.2342C639.728 35.1474 640.178 36.4289 640.178 38.0786V45.2594H637.085V38.4986C637.085 37.5263 636.841 36.7824 636.355 36.2669C635.869 35.7366 635.207 35.4715 634.367 35.4715C633.512 35.4715 632.835 35.7366 632.334 36.2669C631.848 36.7824 631.605 37.5263 631.605 38.4986V45.2594H628.512V33.019H631.605V34.5435C632.018 34.0133 632.54 33.6008 633.174 33.3063C633.822 32.9969 634.529 32.8423 635.295 32.8423Z" fill="#FBFBFB"/>
<path d="M653.615 38.8741C653.615 39.316 653.585 39.7137 653.526 40.067H644.578C644.652 40.9508 644.961 41.6431 645.506 42.144C646.051 42.6446 646.721 42.8951 647.517 42.8951C648.665 42.8951 649.483 42.4018 649.969 41.4149H653.305C652.952 42.5932 652.274 43.5652 651.273 44.3312C650.271 45.0826 649.041 45.4581 647.583 45.4581C646.404 45.4581 645.344 45.2003 644.401 44.6848C643.473 44.1547 642.744 43.4106 642.214 42.4532C641.698 41.4958 641.44 40.3911 641.44 39.1391C641.44 37.8724 641.698 36.7603 642.214 35.8029C642.729 34.8455 643.451 34.109 644.379 33.5935C645.307 33.078 646.375 32.8202 647.583 32.8202C648.746 32.8202 649.785 33.0706 650.698 33.5714C651.626 34.0722 652.34 34.7866 652.841 35.7145C653.357 36.6278 653.615 37.6809 653.615 38.8741ZM650.411 37.9902C650.396 37.1949 650.109 36.5615 649.549 36.0901C648.989 35.6041 648.304 35.361 647.494 35.361C646.728 35.361 646.08 35.5967 645.55 36.068C645.034 36.5246 644.718 37.1654 644.6 37.9902H650.411Z" fill="#FBFBFB"/>
<path d="M659.672 45.4581C658.67 45.4581 657.772 45.2813 656.976 44.928C656.181 44.5598 655.548 44.0661 655.077 43.4474C654.62 42.8287 654.369 42.144 654.325 41.3926H657.441C657.5 41.864 657.728 42.2545 658.126 42.5637C658.538 42.8732 659.046 43.0278 659.65 43.0278C660.239 43.0278 660.696 42.91 661.02 42.6741C661.359 42.4386 661.528 42.1368 661.528 41.7685C661.528 41.3708 661.322 41.0762 660.909 40.8848C660.512 40.6784 659.871 40.4575 658.987 40.2216C658.074 40.0007 657.323 39.7724 656.734 39.5369C656.159 39.301 655.658 38.9405 655.231 38.4541C654.819 37.9681 654.612 37.3127 654.612 36.4878C654.612 35.8103 654.804 35.1916 655.187 34.6319C655.584 34.0722 656.144 33.6303 656.866 33.3063C657.602 32.9822 658.464 32.8202 659.451 32.8202C660.909 32.8202 662.073 33.1884 662.942 33.9249C663.811 34.6466 664.29 35.6262 664.378 36.8635H661.417C661.373 36.3774 661.167 35.9944 660.799 35.7145C660.445 35.42 659.967 35.2727 659.363 35.2727C658.803 35.2727 658.368 35.3758 658.059 35.582C657.765 35.7882 657.617 36.0754 657.617 36.4436C657.617 36.8561 657.823 37.1728 658.236 37.3937C658.648 37.5999 659.289 37.8135 660.158 38.0344C661.042 38.2554 661.771 38.4836 662.345 38.7195C662.92 38.955 663.414 39.3233 663.826 39.8242C664.253 40.3102 664.474 40.9584 664.489 41.7685C664.489 42.4755 664.29 43.1087 663.892 43.6684C663.509 44.2284 662.949 44.6702 662.213 44.994C661.491 45.3035 660.644 45.4581 659.672 45.4581Z" fill="#FBFBFB"/>
<path d="M670.828 45.4581C669.827 45.4581 668.928 45.2813 668.133 44.928C667.338 44.5598 666.704 44.0661 666.233 43.4474C665.776 42.8287 665.526 42.144 665.481 41.3926H668.597C668.656 41.864 668.884 42.2545 669.282 42.5637C669.694 42.8732 670.202 43.0278 670.806 43.0278C671.395 43.0278 671.852 42.91 672.176 42.6741C672.515 42.4386 672.684 42.1368 672.684 41.7685C672.684 41.3708 672.478 41.0762 672.065 40.8848C671.668 40.6784 671.027 40.4575 670.143 40.2216C669.23 40.0007 668.479 39.7724 667.89 39.5369C667.315 39.301 666.814 38.9405 666.387 38.4541C665.975 37.9681 665.769 37.3127 665.769 36.4878C665.769 35.8103 665.96 35.1916 666.343 34.6319C666.741 34.0722 667.301 33.6303 668.022 33.3063C668.759 32.9822 669.621 32.8202 670.607 32.8202C672.065 32.8202 673.229 33.1884 674.098 33.9249C674.967 34.6466 675.446 35.6262 675.534 36.8635H672.574C672.53 36.3774 672.323 35.9944 671.955 35.7145C671.602 35.42 671.123 35.2727 670.519 35.2727C669.959 35.2727 669.525 35.3758 669.216 35.582C668.921 35.7882 668.774 36.0754 668.774 36.4436C668.774 36.8561 668.98 37.1728 669.392 37.3937C669.805 37.5999 670.445 37.8135 671.314 38.0344C672.198 38.2554 672.927 38.4836 673.502 38.7195C674.076 38.955 674.57 39.3233 674.982 39.8242C675.409 40.3102 675.63 40.9584 675.645 41.7685C675.645 42.4755 675.446 43.1087 675.048 43.6684C674.665 44.2284 674.106 44.6702 673.369 44.994C672.647 45.3035 671.8 45.4581 670.828 45.4581Z" fill="#FBFBFB"/>
</svg>
