<svg width="148" height="55" viewBox="0 0 148 55" fill="none" xmlns="http://www.w3.org/2000/svg">
<g id="6496714814b331014c589cab_client-04">
<path id="Vector" d="M53.352 36.0304C51.6837 36.0304 50.2443 35.7033 48.9685 35.049C47.6927 34.3948 46.7113 33.4461 46.0243 32.2357C45.3374 31.0254 44.9775 29.586 44.9775 27.9504C44.9775 26.3147 45.3374 24.8754 46.0243 23.665C46.7113 22.4219 47.6927 21.5059 48.9685 20.8517C50.2443 20.1974 51.7164 19.8376 53.352 19.8376C54.4643 19.8376 55.4783 19.9684 56.3289 20.1974C57.2121 20.4264 57.9972 20.7863 58.7169 21.2769V24.4828C58.0627 23.9594 57.3103 23.5668 56.4924 23.3379C55.6746 23.0762 54.726 22.9453 53.6464 22.9453C52.665 22.9453 51.7491 23.1416 50.964 23.5668C50.1789 23.9594 49.5573 24.5482 49.0994 25.3006C48.6414 26.053 48.4124 26.9363 48.4124 27.9504C48.4124 28.9645 48.6087 29.8804 49.0339 30.6328C49.4592 31.3852 50.048 31.974 50.8331 32.3993C51.6182 32.8246 52.5015 33.0208 53.4829 33.0208C54.3988 33.0208 55.1839 32.8573 55.8709 32.5302V29.5206H53.352V27.0344H59.1095V34.4929C57.6701 35.5397 55.7401 36.0304 53.352 36.0304Z" fill="#FBFBFB"/>
<path id="Vector_2" d="M59.9277 25.0716H63.1663V26.6091C63.5916 26.0857 64.1804 25.6931 64.9655 25.4314C65.7179 25.137 66.6011 25.0062 67.5825 25.0062V27.5578C66.5684 27.5578 65.6525 27.7213 64.8674 28.0157C64.0823 28.3102 63.5589 28.8008 63.2644 29.4224V35.7032H59.9277V25.0716Z" fill="#FBFBFB"/>
<path id="Vector_3" d="M73.9932 36.0304C71.965 36.0304 70.3621 35.5397 69.1845 34.5583C68.0068 33.577 67.418 32.1703 67.418 30.4038C67.418 28.6373 67.9414 27.2634 68.9555 26.2493C70.0023 25.2352 71.5071 24.7118 73.4371 24.7118C74.7129 24.7118 75.7924 24.9408 76.6757 25.4315C77.5589 25.8895 78.2459 26.5764 78.7039 27.3942C79.1619 28.2121 79.3909 29.1607 79.3909 30.2075V31.5488H70.6238C70.8528 32.9227 72.1286 33.577 74.4512 33.577C75.1382 33.577 75.8252 33.5115 76.5448 33.4134C77.2645 33.2825 77.8861 33.119 78.4422 32.9227V35.278C77.9188 35.507 77.2645 35.6706 76.4467 35.8014C75.6289 35.965 74.8111 36.0304 73.9932 36.0304ZM76.2504 29.4224C76.2177 28.7028 75.956 28.1793 75.4653 27.7868C74.9746 27.3942 74.3204 27.198 73.4371 27.198C72.5866 27.198 71.9323 27.3942 71.4416 27.7868C70.9509 28.1793 70.6892 28.7355 70.6565 29.4224H76.2504Z" fill="#FBFBFB"/>
<path id="Vector_4" d="M86.2608 36.0304C84.2326 36.0304 82.6297 35.5397 81.452 34.5583C80.2744 33.577 79.6855 32.1703 79.6855 30.4038C79.6855 28.6373 80.209 27.2634 81.223 26.2493C82.2699 25.2352 83.7746 24.7118 85.7047 24.7118C86.9805 24.7118 88.06 24.9408 88.9433 25.4315C89.8265 25.8895 90.5135 26.5764 90.9715 27.3942C91.4294 28.2121 91.6584 29.1607 91.6584 30.2075V31.5488H82.8914C83.1204 32.9227 84.3962 33.577 86.7188 33.577C87.4058 33.577 88.0927 33.5115 88.8124 33.4134C89.5321 33.2825 90.1536 33.119 90.7098 32.9227V35.278C90.1863 35.507 89.5321 35.6706 88.7143 35.8014C87.8965 35.965 87.0786 36.0304 86.2608 36.0304ZM88.518 29.4224C88.4853 28.7028 88.2236 28.1793 87.7329 27.7868C87.2422 27.3942 86.5879 27.198 85.7047 27.198C84.8542 27.198 84.1999 27.3942 83.7092 27.7868C83.2185 28.1793 82.9568 28.7355 82.9241 29.4224H88.518Z" fill="#FBFBFB"/>
<path id="Vector_5" d="M92.4434 25.0716H95.6819V26.3801C96.1726 25.824 96.7614 25.4314 97.4157 25.1697C98.1027 24.8753 98.7896 24.7444 99.542 24.7444C100.981 24.7444 102.061 25.137 102.781 25.9221C103.5 26.7072 103.86 27.7213 103.86 29.0625V35.7032H100.523V29.4224C100.523 28.0484 99.9019 27.3615 98.6261 27.3615C98.07 27.3615 97.5466 27.4923 97.0559 27.7867C96.5652 28.0484 96.1399 28.441 95.8128 28.9971V35.7032H92.4761V25.0716H92.4434Z" fill="#FBFBFB"/>
<path id="Vector_6" d="M106.805 23.4359C106.281 23.4359 105.856 23.2724 105.496 22.9125C105.136 22.5854 104.973 22.1274 104.973 21.6367C104.973 21.146 105.136 20.7208 105.496 20.3609C105.856 20.0011 106.281 19.8375 106.805 19.8375C107.328 19.8375 107.753 20.0011 108.113 20.3609C108.473 20.6881 108.636 21.1133 108.636 21.6367C108.636 22.1601 108.473 22.5854 108.113 22.9125C107.753 23.2724 107.328 23.4359 106.805 23.4359ZM105.104 25.0716H108.473V35.7032H105.104V25.0716Z" fill="#FBFBFB"/>
<path id="Vector_7" d="M114.197 36.0304C113.412 36.0304 112.529 35.9323 111.613 35.7687C110.697 35.6052 110.01 35.3762 109.487 35.049V32.432C110.076 32.7919 110.795 33.0863 111.613 33.2825C112.431 33.5115 113.216 33.6097 113.903 33.6097C114.525 33.6097 114.95 33.5442 115.244 33.4461C115.539 33.348 115.67 33.1517 115.67 32.8573C115.67 32.6283 115.604 32.4647 115.441 32.3339C115.277 32.1703 115.015 32.0722 114.688 31.9413C114.361 31.8105 113.805 31.6469 113.053 31.4179C112.137 31.1562 111.45 30.8945 110.926 30.6328C110.435 30.3384 110.043 30.0113 109.781 29.586C109.52 29.1607 109.389 28.6373 109.389 27.9831C109.389 26.8708 109.814 26.053 110.697 25.4969C111.58 24.9408 112.791 24.6464 114.296 24.6464C115.048 24.6464 115.8 24.7118 116.585 24.8754C117.371 25.0389 117.992 25.2352 118.417 25.4642V28.0158C117.992 27.7214 117.436 27.4924 116.716 27.3288C116.029 27.1652 115.375 27.0671 114.721 27.0671C114.099 27.0671 113.641 27.1325 113.314 27.2307C112.987 27.3615 112.824 27.5578 112.824 27.8849C112.824 28.1793 112.987 28.3756 113.281 28.5392C113.609 28.7028 114.197 28.8663 115.081 29.0953L115.539 29.1934C116.455 29.4551 117.207 29.7168 117.698 30.044C118.221 30.3384 118.581 30.6982 118.777 31.1235C119.006 31.5488 119.104 32.0722 119.104 32.6937C119.104 33.6751 118.679 34.4602 117.829 35.049C117.011 35.7687 115.8 36.0304 114.197 36.0304Z" fill="#FBFBFB"/>
<path id="Vector_8" d="M119.89 19.3141H123.226V26.282C123.717 25.7586 124.306 25.366 124.927 25.137C125.549 24.8753 126.236 24.7445 126.956 24.7445C128.395 24.7445 129.474 25.137 130.194 25.9221C130.914 26.7072 131.274 27.7213 131.274 29.0626V35.7033H127.937V29.4224C127.937 28.0485 127.315 27.3615 126.04 27.3615C125.484 27.3615 124.96 27.4923 124.469 27.7868C123.979 28.0485 123.553 28.441 123.226 28.9971V35.7033H119.89V19.3141Z" fill="#FBFBFB"/>
<path id="Vector_9" fill-rule="evenodd" clip-rule="evenodd" d="M33.5279 22.4546C33.5279 25.2679 31.238 27.5578 28.4247 27.5578C25.6114 27.5578 23.3215 25.2679 23.3215 22.4546C23.3215 19.6413 25.6114 17.3514 28.4247 17.3514C31.238 17.3514 33.5279 19.6413 33.5279 22.4546ZM16.5499 27.1979C22.1111 26.8381 26.9526 30.9926 27.4106 36.5538C27.4433 37.1426 27.4433 37.6987 27.4106 38.2549C21.8494 38.6147 17.0079 34.4602 16.5499 28.899C16.5172 28.3102 16.5172 27.7541 16.5499 27.1979ZM31.009 38.0586C36.5702 37.6006 40.7247 32.7591 40.3648 27.1979C39.8087 27.1652 39.2526 27.1325 38.6638 27.1979C33.1026 27.6559 28.9481 32.4974 29.3079 38.0586C29.864 38.0913 30.4202 38.0913 31.009 38.0586Z" fill="#FBFBFB"/>
</g>
</svg>
