<svg width="148" height="63" viewBox="0 0 148 63" fill="none" xmlns="http://www.w3.org/2000/svg">
<path d="M41.2347 40.549C41.3995 42.4859 40.7401 44.5052 39.2565 45.9888C37.773 47.4724 35.7536 48.173 33.8167 48.0082C33.6519 46.0713 34.3112 44.0519 35.7948 42.5683C37.2784 41.0848 39.2978 40.3842 41.2347 40.549Z" fill="#FBFBFB"/>
<path d="M37.6908 37.8291C35.7539 39.9309 32.9103 41.1672 29.8607 41.0024C26.7699 40.8787 24.0912 39.3539 22.3604 37.1286C24.2973 35.0268 27.1408 33.7905 30.1904 33.9553C33.2812 34.079 35.9599 35.6038 37.6908 37.8291Z" fill="#FBFBFB"/>
<path d="M21.2061 31.153C21.6182 26.2901 24.0908 21.5921 28.3767 18.5013C32.6627 15.4105 37.8964 14.5862 42.6357 15.7401C42.2236 20.603 39.7509 25.3011 35.465 28.3919C31.1791 31.4827 25.9453 32.3069 21.2061 31.153Z" fill="#FBFBFB"/>
<path d="M100.207 25.1362V28.1034H101.979V43.6399H105.152V28.1446H109.315V25.1774H105.152V22.1278C105.152 21.2624 105.235 20.5618 105.4 20.0261C105.564 19.4903 105.77 19.1194 106.018 18.9134C106.306 18.6661 106.636 18.5425 107.048 18.5425C107.378 18.5425 107.707 18.6249 108.037 18.7485C108.408 18.8722 108.738 19.1194 108.985 19.5728L110.716 16.9765C110.551 16.7292 110.262 16.4819 109.933 16.2347C109.603 15.9874 109.232 15.7814 108.779 15.6577C108.326 15.4929 107.831 15.4105 107.254 15.4105C106.141 15.4105 105.194 15.6577 104.411 16.111C103.628 16.5644 103.051 17.2649 102.638 18.1716C102.226 19.0782 102.02 20.2733 102.02 21.7157V25.1362H100.207Z" fill="#FBFBFB"/>
<path d="M50.4658 19.1194V43.6811H64.7248V40.5079H53.8451V19.1194H50.4658Z" fill="#FBFBFB"/>
<path fill-rule="evenodd" clip-rule="evenodd" d="M73.1726 44.052C75.1095 44.052 76.7992 43.6811 78.2416 42.8981C79.6839 42.115 80.8791 40.9611 81.8269 39.3951L79.2718 37.7879C78.6125 38.9006 77.7882 39.7248 76.8404 40.3018C75.8925 40.8375 74.7798 41.0848 73.5435 41.0848C72.3072 41.0848 71.2357 40.8375 70.3703 40.3018C69.5049 39.766 68.8455 39.0242 68.3922 37.994C68.0625 37.2522 67.8564 36.3455 67.774 35.3565H82.1154V34.9856C82.1566 34.7795 82.1566 34.5735 82.1566 34.4086C82.1566 32.4717 81.8269 30.8233 81.1263 29.4221C80.4257 28.021 79.4367 26.9495 78.1591 26.2077C76.8816 25.4247 75.3568 25.0538 73.5847 25.0538C71.8127 25.0538 70.2055 25.4659 68.8455 26.2489C67.4855 27.0319 66.4553 28.1446 65.6723 29.587C64.9305 31.0293 64.5596 32.6778 64.5596 34.5735C64.5596 36.428 64.9305 38.1176 65.631 39.5188C66.3728 40.9611 67.4031 42.0738 68.6807 42.8981C69.9582 43.6398 71.483 44.052 73.1726 44.052ZM68.4746 30.8233C68.2273 31.359 68.0213 31.9772 67.8976 32.6366H78.6949C78.6537 31.7711 78.4064 30.9881 78.0355 30.3288C77.6234 29.5457 77.0052 28.9276 76.2634 28.4743C75.4804 28.0209 74.615 27.8149 73.5847 27.8149C72.3896 27.8149 71.3181 28.0622 70.4527 28.5979C69.5873 29.0924 68.9279 29.8342 68.4746 30.8233Z" fill="#FBFBFB"/>
<path fill-rule="evenodd" clip-rule="evenodd" d="M95.0564 33.6668C94.5619 33.3371 93.9437 33.0487 93.1607 32.8014C92.2953 32.4717 91.1826 32.3069 89.8638 32.3069C87.6385 32.3069 85.8664 32.8426 84.5889 33.9141C83.3525 34.9856 82.7344 36.3867 82.7344 38.1588C82.7344 39.3951 83.0229 40.4666 83.5998 41.332C84.1768 42.1975 84.9598 42.8568 85.9076 43.3514C86.8967 43.8047 87.9269 44.0107 89.0396 44.0107C90.0287 44.0107 91.059 43.8459 92.048 43.475C93.0783 43.1041 93.9437 42.5272 94.6031 41.7854C94.7679 41.6205 94.9328 41.4145 95.0564 41.2084V43.6399H98.2296V30.576C98.2296 29.3809 97.9412 28.3918 97.323 27.5676C96.7461 26.7434 95.9218 26.1253 94.8091 25.7131C93.7377 25.2598 92.5013 25.0538 91.1002 25.0538C89.4105 25.0538 87.9681 25.301 86.7318 25.7956C85.5367 26.2901 84.5889 26.7846 83.9295 27.3204L85.4543 29.6694C85.7428 29.4633 86.1549 29.2161 86.6494 28.9276C87.1439 28.6391 87.7621 28.3918 88.4627 28.1858C89.2045 27.9797 90.0287 27.8561 90.9353 27.8561C91.4711 27.8561 92.0068 27.8973 92.5013 28.0209C92.9959 28.1446 93.4492 28.3094 93.8201 28.5155C94.2322 28.7627 94.5207 29.0924 94.7267 29.5045C94.9328 29.9166 95.0564 30.4112 95.0564 31.0293V33.6668ZM86.4433 36.3455C86.1137 36.8401 85.9488 37.3758 85.9488 38.0352C85.9488 38.7358 86.1137 39.3127 86.4433 39.8072C86.773 40.3018 87.2676 40.6727 87.8445 40.9611C88.4627 41.2084 89.1221 41.332 89.9051 41.332C90.8941 41.332 91.7595 41.126 92.5013 40.7551C93.2843 40.343 93.9025 39.8072 94.3558 39.1067C94.8504 38.3649 95.0564 37.5407 95.0564 36.5928V35.8922C94.5619 35.6449 94.0261 35.4389 93.5316 35.3153C92.5425 35.0268 91.5123 34.8619 90.3996 34.8619C89.3693 34.8619 88.5451 34.9856 87.8857 35.2741C87.2264 35.4801 86.7318 35.851 86.4433 36.3455Z" fill="#FBFBFB"/>
<path fill-rule="evenodd" clip-rule="evenodd" d="M123.08 42.8981C121.637 43.6811 119.948 44.052 118.011 44.052C116.321 44.052 114.796 43.6399 113.478 42.8569C112.2 42.0326 111.17 40.92 110.428 39.4776C109.727 38.0352 109.356 36.3868 109.356 34.5323C109.356 32.6366 109.727 30.9881 110.469 29.5458C111.252 28.1034 112.282 27.0319 113.642 26.2077C115.002 25.4247 116.61 25.0126 118.382 25.0126C120.195 25.0126 121.72 25.3835 122.956 26.1665C124.234 26.9083 125.223 27.9798 125.923 29.3809C126.624 30.7821 126.953 32.4305 126.953 34.3674C126.953 34.5323 126.953 34.7383 126.912 34.9444V35.3153H112.571C112.653 36.3043 112.859 37.211 113.189 37.9528C113.642 38.9418 114.302 39.7248 115.167 40.2606C116.033 40.7963 117.104 41.0436 118.34 41.0436C119.577 41.0436 120.689 40.7963 121.637 40.2606C122.585 39.7248 123.409 38.8594 124.069 37.7467L126.624 39.3539C125.717 40.9612 124.522 42.1151 123.08 42.8981ZM112.736 32.6366C112.859 31.9772 113.024 31.359 113.313 30.8233C113.807 29.8342 114.467 29.0924 115.291 28.5979C116.156 28.0622 117.187 27.8149 118.423 27.8149C119.453 27.8149 120.36 28.021 121.102 28.4743C121.885 28.9276 122.461 29.5458 122.874 30.3288C123.244 30.9881 123.451 31.7711 123.533 32.6366H112.736Z" fill="#FBFBFB"/>
</svg>
