<svg width="223" height="71" viewBox="0 0 223 71" fill="none" xmlns="http://www.w3.org/2000/svg">
<path d="M50.723 41.7631C57.5903 37.9102 66.2791 40.296 70.2162 47.1152L64.291 50.5361C57.3924 54.5192 48.5691 52.1056 44.6582 45.1658L50.723 41.7631Z" fill="#FBFBFB"/>
<path d="M48.2116 39.0619C52.1345 32.2672 60.8232 29.9391 67.618 33.8621L64.0666 40.0138C60.1433 46.8086 51.4549 49.1368 44.6602 45.2135L48.2116 39.0619Z" fill="#FBFBFB"/>
<path d="M44.3525 38.4038C44.3525 30.1629 51.0332 23.4824 59.2738 23.4824V30.4457C59.2738 38.6864 52.5932 45.367 44.3525 45.367V38.4038Z" fill="#FBFBFB"/>
<path d="M40.8315 38.6875C36.9085 31.8927 39.2364 23.2042 46.0315 19.2811L49.5829 25.4327C53.5062 32.2276 51.178 40.9162 44.3833 44.8391L40.8315 38.6875Z" fill="#FBFBFB"/>
<path d="M44.3523 37.4089C44.3523 29.7176 38.1172 23.4824 30.4258 23.4824V31.4404C30.4258 39.1319 36.661 45.367 44.3523 45.367V37.4089Z" fill="#FBFBFB"/>
<path d="M41.3538 39.0619C37.4309 32.2672 28.7422 29.9391 21.9473 33.8621L25.4989 40.0138C29.4219 46.8086 38.1105 49.1368 44.9052 45.2135L41.3538 39.0619Z" fill="#FBFBFB"/>
<path d="M38.8416 41.7631C31.9744 37.9102 23.2857 40.296 19.3486 47.1152L25.2737 50.5361C32.1725 54.5192 40.9959 52.1056 44.9068 45.1658L38.8416 41.7631Z" fill="#FBFBFB"/>
<path d="M95.5365 28.8375V44.2594H92.4434V34.2284L88.3116 44.2594H85.9695L81.8158 34.2284V44.2594H78.7227V28.8375H82.2358L87.1405 40.3044L92.0456 28.8375H95.5365Z" fill="#FBFBFB"/>
<path d="M99.2801 30.5608C98.735 30.5608 98.2782 30.3914 97.91 30.0527C97.5567 29.6992 97.3799 29.2646 97.3799 28.7491C97.3799 28.2336 97.5567 27.8064 97.91 27.4676C98.2782 27.1141 98.735 26.9374 99.2801 26.9374C99.8248 26.9374 100.274 27.1141 100.628 27.4676C100.996 27.8064 101.18 28.2336 101.18 28.7491C101.18 29.2646 100.996 29.6992 100.628 30.0527C100.274 30.3914 99.8248 30.5608 99.2801 30.5608ZM100.804 32.0191V44.2594H97.7113V32.0191H100.804Z" fill="#FBFBFB"/>
<path d="M109.76 31.8423C111.218 31.8423 112.396 32.3063 113.295 33.2342C114.193 34.1474 114.642 35.4289 114.642 37.0786V44.2594H111.549V37.4986C111.549 36.5263 111.306 35.7824 110.82 35.2669C110.334 34.7366 109.671 34.4715 108.832 34.4715C107.977 34.4715 107.3 34.7366 106.799 35.2669C106.313 35.7824 106.07 36.5263 106.07 37.4986V44.2594H102.977V32.019H106.07V33.5435C106.482 33.0133 107.005 32.6008 107.638 32.3063C108.287 31.9969 108.994 31.8423 109.76 31.8423Z" fill="#FBFBFB"/>
<path d="M115.904 38.095C115.904 36.8576 116.147 35.7603 116.633 34.8029C117.134 33.8454 117.812 33.109 118.666 32.5934C119.521 32.0779 120.471 31.8202 121.516 31.8202C122.312 31.8202 123.07 31.9969 123.792 32.3504C124.514 32.6892 125.088 33.1458 125.515 33.7203V27.9095H128.653V44.2594H125.515V42.4474C125.132 43.0515 124.595 43.5375 123.903 43.9057C123.21 44.274 122.407 44.4581 121.494 44.4581C120.463 44.4581 119.521 44.193 118.666 43.6626C117.812 43.1324 117.134 42.3887 116.633 41.4313C116.147 40.459 115.904 39.347 115.904 38.095ZM125.537 38.1391C125.537 37.3881 125.39 36.7472 125.095 36.2169C124.801 35.6719 124.403 35.2595 123.903 34.9796C123.402 34.685 122.864 34.5378 122.29 34.5378C121.715 34.5378 121.185 34.6777 120.699 34.9575C120.213 35.2374 119.815 35.6498 119.506 36.1948C119.211 36.7251 119.064 37.3585 119.064 38.095C119.064 38.8315 119.211 39.4793 119.506 40.0393C119.815 40.5844 120.213 41.004 120.699 41.2986C121.2 41.5932 121.73 41.7405 122.29 41.7405C122.864 41.7405 123.402 41.6005 123.903 41.3208C124.403 41.0262 124.801 40.6135 125.095 40.0834C125.39 39.5384 125.537 38.8902 125.537 38.1391Z" fill="#FBFBFB"/>
<path d="M136.402 34.5599H134.259V44.2594H131.121V34.5599H129.729V32.019H131.121V31.4004C131.121 29.898 131.548 28.7933 132.403 28.0863C133.257 27.3793 134.546 27.0478 136.269 27.092V29.6992C135.518 29.6844 134.995 29.8096 134.701 30.0748C134.406 30.3399 134.259 30.8186 134.259 31.5109V32.019H136.402V34.5599Z" fill="#FBFBFB"/>
<path d="M149.079 32.019V44.2594H145.964V42.7125C145.566 43.243 145.043 43.6626 144.395 43.9721C143.762 44.2667 143.069 44.414 142.318 44.414C141.361 44.414 140.514 44.2149 139.777 43.8175C139.041 43.4048 138.459 42.8084 138.032 42.0278C137.619 41.2323 137.413 40.2898 137.413 39.1997V32.019H140.506V38.7579C140.506 39.7298 140.749 40.4812 141.235 41.0113C141.722 41.5269 142.385 41.7846 143.224 41.7846C144.078 41.7846 144.749 41.5269 145.234 41.0113C145.72 40.4812 145.964 39.7298 145.964 38.7579V32.019H149.079Z" fill="#FBFBFB"/>
<path d="M154.34 27.9095V44.2594H151.247V27.9095H154.34Z" fill="#FBFBFB"/>
<path d="M163.295 31.8423C164.753 31.8423 165.931 32.3063 166.83 33.2342C167.728 34.1474 168.178 35.4289 168.178 37.0786V44.2594H165.085V37.4986C165.085 36.5263 164.841 35.7824 164.355 35.2669C163.869 34.7366 163.207 34.4715 162.367 34.4715C161.512 34.4715 160.835 34.7366 160.334 35.2669C159.848 35.7824 159.605 36.5263 159.605 37.4986V44.2594H156.512V32.019H159.605V33.5435C160.018 33.0133 160.54 32.6008 161.174 32.3063C161.822 31.9969 162.529 31.8423 163.295 31.8423Z" fill="#FBFBFB"/>
<path d="M181.615 37.8741C181.615 38.316 181.585 38.7137 181.526 39.067H172.578C172.652 39.9508 172.961 40.6431 173.506 41.144C174.051 41.6446 174.721 41.8951 175.517 41.8951C176.665 41.8951 177.483 41.4018 177.969 40.4149H181.305C180.952 41.5932 180.274 42.5652 179.273 43.3312C178.271 44.0826 177.041 44.4581 175.583 44.4581C174.404 44.4581 173.344 44.2003 172.401 43.6848C171.473 43.1547 170.744 42.4106 170.214 41.4532C169.698 40.4958 169.44 39.3911 169.44 38.1391C169.44 36.8724 169.698 35.7603 170.214 34.8029C170.729 33.8455 171.451 33.109 172.379 32.5935C173.307 32.078 174.375 31.8202 175.583 31.8202C176.746 31.8202 177.785 32.0706 178.698 32.5714C179.626 33.0722 180.34 33.7866 180.841 34.7145C181.357 35.6278 181.615 36.6809 181.615 37.8741ZM178.411 36.9902C178.396 36.1949 178.109 35.5615 177.549 35.0901C176.989 34.6041 176.304 34.361 175.494 34.361C174.728 34.361 174.08 34.5967 173.55 35.068C173.034 35.5246 172.718 36.1654 172.6 36.9902H178.411Z" fill="#FBFBFB"/>
<path d="M187.672 44.4581C186.67 44.4581 185.772 44.2813 184.976 43.928C184.181 43.5598 183.548 43.0661 183.077 42.4474C182.62 41.8287 182.369 41.144 182.325 40.3926H185.441C185.5 40.864 185.728 41.2545 186.126 41.5637C186.538 41.8732 187.046 42.0278 187.65 42.0278C188.239 42.0278 188.696 41.91 189.02 41.6741C189.359 41.4386 189.528 41.1368 189.528 40.7685C189.528 40.3708 189.322 40.0762 188.909 39.8848C188.512 39.6784 187.871 39.4575 186.987 39.2216C186.074 39.0007 185.323 38.7724 184.734 38.5369C184.159 38.301 183.658 37.9405 183.231 37.4541C182.819 36.9681 182.612 36.3127 182.612 35.4878C182.612 34.8103 182.804 34.1916 183.187 33.6319C183.584 33.0722 184.144 32.6303 184.866 32.3063C185.602 31.9822 186.464 31.8202 187.451 31.8202C188.909 31.8202 190.073 32.1884 190.942 32.9249C191.811 33.6466 192.29 34.6262 192.378 35.8635H189.417C189.373 35.3774 189.167 34.9944 188.799 34.7145C188.445 34.42 187.967 34.2727 187.363 34.2727C186.803 34.2727 186.368 34.3758 186.059 34.582C185.765 34.7882 185.617 35.0754 185.617 35.4436C185.617 35.8561 185.823 36.1728 186.236 36.3937C186.648 36.5999 187.289 36.8135 188.158 37.0344C189.042 37.2554 189.771 37.4836 190.345 37.7195C190.92 37.955 191.414 38.3233 191.826 38.8242C192.253 39.3102 192.474 39.9584 192.489 40.7685C192.489 41.4755 192.29 42.1087 191.892 42.6684C191.509 43.2284 190.949 43.6702 190.213 43.994C189.491 44.3035 188.644 44.4581 187.672 44.4581Z" fill="#FBFBFB"/>
<path d="M198.828 44.4581C197.827 44.4581 196.928 44.2813 196.133 43.928C195.338 43.5598 194.704 43.0661 194.233 42.4474C193.776 41.8287 193.526 41.144 193.481 40.3926H196.597C196.656 40.864 196.884 41.2545 197.282 41.5637C197.694 41.8732 198.202 42.0278 198.806 42.0278C199.395 42.0278 199.852 41.91 200.176 41.6741C200.515 41.4386 200.684 41.1368 200.684 40.7685C200.684 40.3708 200.478 40.0762 200.065 39.8848C199.668 39.6784 199.027 39.4575 198.143 39.2216C197.23 39.0007 196.479 38.7724 195.89 38.5369C195.315 38.301 194.814 37.9405 194.387 37.4541C193.975 36.9681 193.769 36.3127 193.769 35.4878C193.769 34.8103 193.96 34.1916 194.343 33.6319C194.741 33.0722 195.301 32.6303 196.022 32.3063C196.759 31.9822 197.621 31.8202 198.607 31.8202C200.065 31.8202 201.229 32.1884 202.098 32.9249C202.967 33.6466 203.446 34.6262 203.534 35.8635H200.574C200.53 35.3774 200.323 34.9944 199.955 34.7145C199.602 34.42 199.123 34.2727 198.519 34.2727C197.959 34.2727 197.525 34.3758 197.216 34.582C196.921 34.7882 196.774 35.0754 196.774 35.4436C196.774 35.8561 196.98 36.1728 197.392 36.3937C197.805 36.5999 198.445 36.8135 199.314 37.0344C200.198 37.2554 200.927 37.4836 201.502 37.7195C202.076 37.955 202.57 38.3233 202.982 38.8242C203.409 39.3102 203.63 39.9584 203.645 40.7685C203.645 41.4755 203.446 42.1087 203.048 42.6684C202.665 43.2284 202.106 43.6702 201.369 43.994C200.647 44.3035 199.8 44.4581 198.828 44.4581Z" fill="#FBFBFB"/>
</svg>
